<svg width="30" height="15" viewBox="0 0 30 15" fill="none" xmlns="http://www.w3.org/2000/svg">
<path d="M28.5936 10.7813C27.8169 10.7813 27.1872 10.1517 27.1872 9.37504V5.62506C27.1872 4.84844 27.8169 4.21882 28.5936 4.21882C29.3703 4.21882 30 4.84844 30 5.62506V9.37504C30 10.1517 29.3703 10.7813 28.5936 10.7813ZM22.0244 14.9985H18.7487C17.972 14.9985 17.3423 14.3689 17.3423 13.5923C17.3423 12.8156 17.972 12.186 18.7487 12.186H22.024C22.2092 12.1864 22.3927 12.15 22.5637 12.0791C22.7348 12.0081 22.8901 11.9039 23.0207 11.7725C23.152 11.6418 23.2561 11.4863 23.327 11.315C23.3978 11.1437 23.434 10.9601 23.4334 10.7748V4.22435C23.4338 3.44595 22.8012 2.81286 22.0233 2.81248H18.7487C17.972 2.81248 17.3423 2.18286 17.3423 1.40624C17.3423 0.629621 17.972 0 18.7487 0H22.024C24.3536 0.00112499 26.2473 1.89646 26.2462 4.22491V10.7741C26.2468 11.9014 25.8079 12.9622 25.0105 13.7603C24.2131 14.5583 23.1526 14.998 22.0244 14.9985ZM7.49747 14.9985H4.22232C1.89293 14.9976 -0.000937257 13.1022 3.48005e-07 10.7737V4.22444C-0.000937257 1.89646 1.89284 0.00121941 4.22166 9.44132e-05H7.49747C8.27418 9.44132e-05 8.90388 0.629715 8.90388 1.40634C8.90388 2.18296 8.27418 2.81258 7.49747 2.81258H4.22232C3.44504 2.81295 2.81244 3.44604 2.81282 4.22379V10.7742C2.81254 11.5527 3.44504 12.1858 4.22298 12.1861H7.49747C8.27418 12.1861 8.90388 12.8157 8.90388 13.5924C8.90388 14.369 8.27418 14.9985 7.49747 14.9985ZM11.2466 14.983C10.9945 14.983 10.7395 14.9153 10.5093 14.7733C9.84833 14.3654 9.64318 13.4991 10.051 12.838L12.4777 8.90629H11.2479C10.9976 8.90629 10.7519 8.83951 10.5361 8.71286C10.3202 8.5862 10.1421 8.40426 10.02 8.18579C9.898 7.96733 9.83648 7.72026 9.84181 7.47008C9.84714 7.21991 9.91914 6.97568 10.0504 6.76261L13.8008 0.673684C14.2081 0.0123754 15.0745 -0.193497 15.7358 0.21375C16.3972 0.620997 16.6031 1.48724 16.1958 2.14855L13.7657 6.09381H14.9983C15.2487 6.09383 15.4945 6.16068 15.7104 6.28744C15.9263 6.41421 16.1044 6.5963 16.2264 6.81491C16.3484 7.03352 16.4098 7.28073 16.4043 7.53101C16.3988 7.78128 16.3266 8.02556 16.1952 8.2386L12.4447 14.3152C12.1788 14.7459 11.7181 14.983 11.2466 14.983Z" fill="#26ACBE"/>
</svg>
