<svg width="31" height="15" viewBox="0 0 31 15" fill="none" xmlns="http://www.w3.org/2000/svg">
<path d="M3.58438 6H12.7875C14.7671 6 16.3719 7.55297 16.3719 9.46875V11.5312C16.3719 13.447 14.7671 15 12.7875 15H3.58438C1.60473 15 0 13.447 0 11.5312V9.46875C0 7.55297 1.60473 6 3.58438 6Z" fill="#8FD689"/>
<path d="M29.5469 10.7812C28.7444 10.7812 28.0938 10.1516 28.0938 9.375V5.625C28.0938 4.84837 28.7444 4.21875 29.5469 4.21875C30.3494 4.21875 31 4.84837 31 5.625V9.375C31 10.1516 30.3494 10.7812 29.5469 10.7812ZM3.58437 2.8125C3.21053 2.8125 2.90625 3.10697 2.90625 3.46875V11.5312C2.90625 11.8931 3.21053 12.1875 3.58437 12.1875H23.5406C23.9146 12.1875 24.2188 11.8931 24.2188 11.5312V3.46875C24.2188 3.10697 23.9146 2.8125 23.5406 2.8125H3.58437ZM3.58437 0H23.5406C25.5203 0 27.125 1.55297 27.125 3.46875V11.5312C27.125 13.447 25.5203 15 23.5406 15H3.58437C1.60473 15 0 13.447 0 11.5312V3.46875C0 1.55297 1.60473 0 3.58437 0Z" fill="#65C02D"/>
</svg>
