<svg width="23" height="23" viewBox="0 0 23 23" fill="none" xmlns="http://www.w3.org/2000/svg">
<path d="M11.5 2.15625C6.34786 2.15625 2.15625 6.34786 2.15625 11.5C2.15625 16.6522 6.34786 20.8438 11.5 20.8438C16.6522 20.8438 20.8438 16.6522 20.8438 11.5C20.8438 6.34786 16.6521 2.15625 11.5 2.15625ZM11.5 0C17.8513 0 23 5.14877 23 11.5C23 17.8513 17.8513 23 11.5 23C5.14877 23 0 17.8513 0 11.5C0 5.14877 5.14877 0 11.5 0Z" fill="#DABA48"/>
<path d="M5.38073 12.5097C4.967 12.3588 4.67171 11.9618 4.67201 11.4959C4.67237 10.9005 5.15531 10.4181 5.75078 10.4184L17.2508 10.4253C17.8463 10.4254 18.3286 10.9086 18.3283 11.504C18.3279 12.0995 17.8449 12.5819 17.2494 12.5815L5.7495 12.5747C5.62372 12.5747 5.49891 12.5527 5.38073 12.5097Z" fill="#DABA48"/>
</svg>
